<svg width="21" height="20" viewBox="0 0 21 20" fill="none" xmlns="http://www.w3.org/2000/svg">
<path d="M10.529 16.8476C11.475 16.8476 12.339 16.7446 13.127 16.5666L11.37 14.8096C11.097 14.8306 10.82 14.8476 10.529 14.8476C5.17803 14.8476 3.10503 11.0016 2.60303 9.84762C2.97998 9.00643 3.48908 8.23097 4.11103 7.55062L2.71303 6.15263C1.17503 7.81962 0.592032 9.49862 0.581032 9.53162C0.512052 9.73699 0.512052 9.95926 0.581032 10.1646C0.602032 10.2306 2.89603 16.8476 10.529 16.8476ZM10.529 2.84763C8.69203 2.84763 7.18303 3.24362 5.92503 3.82862L2.23603 0.140625L0.822032 1.55463L18.822 19.5546L20.236 18.1406L16.917 14.8216C19.531 12.8706 20.464 10.2066 20.478 10.1646C20.547 9.95926 20.547 9.73699 20.478 9.53162C20.456 9.46462 18.162 2.84763 10.529 2.84763ZM15.501 13.4056L13.221 11.1256C13.411 10.7356 13.529 10.3066 13.529 9.84762C13.529 8.20662 12.17 6.84762 10.529 6.84762C10.07 6.84762 9.64103 6.96562 9.25203 7.15662L7.44403 5.34863C8.43655 5.00804 9.47974 4.83862 10.529 4.84762C15.88 4.84762 17.953 8.69362 18.455 9.84762C18.153 10.5396 17.289 12.1896 15.501 13.4056Z" fill="#1E1E1E"/>
</svg>
