<svg width="150" height="150" viewBox="0 0 150 150" fill="none" xmlns="http://www.w3.org/2000/svg">
<circle r="75" transform="matrix(-1 0 0 1 75 75)" fill="#006E7D"/>
<g clip-path="url(#clip0_781_246)">
<path d="M59.3416 79.953V79.2396H62.5041V80.0322C62.5041 84.6293 62.5041 89.1471 62.5041 93.665C62.5041 95.5672 63.584 96.5976 65.3581 96.5976H79.6281C79.7824 96.5976 80.0138 96.6769 80.168 96.5183V53.2423H65.5895C63.5069 53.2423 62.5041 54.2726 62.5041 56.4127V72.661C62.5041 72.7403 62.5041 72.8195 62.5041 72.8988H59.4187V72.5818C59.4187 70.6002 59.4187 68.5395 59.4187 66.558C59.4187 63.1498 59.4187 59.6623 59.4187 56.2541C59.4187 52.6082 61.8871 50.0718 65.4353 50.0718H80.2452C80.2452 49.9926 80.3223 49.9133 80.3223 49.8341C81.3251 46.0296 84.6419 44.2066 88.2672 45.3955C91.584 46.5844 94.978 47.7733 98.2948 48.8037C100.84 49.5963 103 51.8156 102.923 55.3823C102.846 63.3876 102.923 71.4721 102.923 79.4774C103 84.6293 103 89.702 103 94.8539C103 97.945 101.457 100.085 98.6804 101.036C95.1322 102.225 91.584 103.493 88.0358 104.682C84.7961 105.792 81.3251 103.89 80.3995 100.561C80.3223 100.323 80.3994 100.085 80.168 99.9265H79.4738C74.8457 99.9265 70.1405 99.8473 65.5124 99.9265C62.0413 100.006 59.1873 97.3902 59.2645 93.5065C59.4187 88.9886 59.3416 84.4708 59.3416 79.953ZM83.3306 74.9596V98.4999C83.3306 100.244 84.1019 101.353 85.5675 101.75C86.1074 101.908 86.6474 101.829 87.1873 101.591C90.7355 100.402 94.2837 99.2132 97.832 97.945C99.2975 97.4695 99.9146 96.4391 99.9146 94.7746V55.4615C99.9146 53.4008 99.3747 52.6082 97.4463 51.8948C94.1295 50.7852 90.7355 49.5963 87.4187 48.4866C85.1818 47.694 83.4077 49.0415 83.4077 51.4985C83.2534 59.266 83.3306 67.1128 83.3306 74.9596Z" fill="white"/>
<path d="M47.3083 75.4352L54.019 82.7272L56.1788 80.5079L56.1017 80.4286L54.019 78.3679L51.7821 76.1486H73.6113V72.9782H62.5039H51.8593L56.1788 68.6981L53.8648 66.3203L47.2312 73.6915C46.8455 74.1671 46.8455 74.9597 47.3083 75.4352Z" fill="white"/>
</g>
<defs>
<clipPath id="clip0_781_246">
<rect width="56" height="60" fill="white" transform="matrix(-1 0 0 1 103 45)"/>
</clipPath>
</defs>
</svg>
