<svg width="25" height="25" viewBox="0 0 25 25" fill="none" xmlns="http://www.w3.org/2000/svg">
<path d="M12.3052 0.615234C18.8411 0.615234 24.1406 5.91477 24.1406 12.4507C24.1406 18.9866 18.8411 24.2861 12.3052 24.2861C5.76925 24.2861 0.469711 18.9866 0.469711 12.4507C0.469711 5.91477 5.76925 0.615234 12.3052 0.615234ZM12.3052 22.2783C17.7315 22.2783 22.1328 17.877 22.1328 12.4507C22.1328 7.02435 17.7315 2.62304 12.3052 2.62304C6.87882 2.62304 2.47751 7.02435 2.47751 12.4507C2.47751 17.877 6.87882 22.2783 12.3052 22.2783Z" fill="#04ACDD"/>
<path d="M9.35601 7.29203C10.1486 6.59722 11.1947 6.2168 12.3043 6.2168C13.4139 6.2168 14.46 6.59986 15.2526 7.29203C16.0769 8.01325 16.5312 8.98281 16.5312 10.0211V10.2218C16.5312 10.3381 16.4361 10.4332 16.3199 10.4332H15.0518C14.9356 10.4332 14.8405 10.3381 14.8405 10.2218V10.0211C14.8405 8.856 13.7018 7.90758 12.3043 7.90758C10.9068 7.90758 9.76813 8.856 9.76813 10.0211C9.76813 10.8427 10.3493 11.5956 11.2502 11.9417C11.8103 12.1557 12.2858 12.5308 12.6266 13.0222C12.9727 13.5241 13.1523 14.1265 13.1523 14.7367V15.3047C13.1523 15.421 13.0572 15.5161 12.941 15.5161H11.6729C11.5567 15.5161 11.4616 15.421 11.4616 15.3047V14.705C11.4602 14.4486 11.3816 14.1985 11.236 13.9873C11.0903 13.7762 10.8845 13.6139 10.6452 13.5215C9.08654 12.9218 8.07999 11.548 8.07999 10.0211C8.07735 8.98281 8.53175 8.01325 9.35601 7.29203ZM13.361 18.2636C13.361 18.5439 13.2497 18.8127 13.0515 19.0108C12.8534 19.209 12.5846 19.3203 12.3043 19.3203C12.024 19.3203 11.7553 19.209 11.5571 19.0108C11.3589 18.8127 11.2476 18.5439 11.2476 18.2636C11.2476 17.9833 11.3589 17.7146 11.5571 17.5164C11.7553 17.3182 12.024 17.2069 12.3043 17.2069C12.5846 17.2069 12.8534 17.3182 13.0515 17.5164C13.2497 17.7146 13.361 17.9833 13.361 18.2636Z" fill="#04ACDD"/>
</svg>
