<svg width="150" height="150" viewBox="0 0 150 150" fill="none" xmlns="http://www.w3.org/2000/svg">
<circle r="75" transform="matrix(-1 0 0 1 75 75)" fill="#006E7D"/>
<g clip-path="url(#clip0_669_1034)">
<path d="M57.2504 79.953V79.2396H60.4919V80.0322C60.4919 84.6293 60.4919 89.1471 60.4919 93.665C60.4919 95.5672 61.5988 96.5976 63.4173 96.5976H78.0439C78.2021 96.5976 78.4392 96.6769 78.5974 96.5183V53.2423H63.6545C61.5198 53.2423 60.4919 54.2726 60.4919 56.4127V72.661C60.4919 72.7403 60.4919 72.8195 60.4919 72.8988H57.3294V72.5818C57.3294 70.6002 57.3294 68.5395 57.3294 66.558C57.3294 63.1498 57.3294 59.6623 57.3294 56.2541C57.3294 52.6082 59.8594 50.0718 63.4963 50.0718H78.6764C78.6764 49.9926 78.7555 49.9133 78.7555 49.8341C79.7833 46.0296 83.183 44.2066 86.899 45.3955C90.2987 46.5844 93.7775 47.7733 97.1772 48.8037C99.7862 49.5963 102 51.8156 101.921 55.3823C101.842 63.3876 101.921 71.4721 101.921 79.4774C102 84.6293 102 89.702 102 94.8539C102 97.945 100.419 100.085 97.5725 101.036C93.9356 102.225 90.2987 103.493 86.6618 104.682C83.3411 105.792 79.7833 103.89 78.8346 100.561C78.7555 100.323 78.8346 100.085 78.5974 99.9265H77.8858C73.142 99.9265 68.3192 99.8473 63.5754 99.9265C60.0176 100.006 57.0922 97.3902 57.1713 93.5065C57.3294 88.9886 57.2504 84.4708 57.2504 79.953ZM81.8389 74.9596V98.4999C81.8389 100.244 82.6296 101.353 84.1318 101.75C84.6852 101.908 85.2387 101.829 85.7921 101.591C89.429 100.402 93.0659 99.2132 96.7028 97.945C98.205 97.4695 98.8375 96.4391 98.8375 94.7746V55.4615C98.8375 53.4008 98.284 52.6082 96.3075 51.8948C92.9078 50.7852 89.429 49.5963 86.0293 48.4866C83.7365 47.694 81.918 49.0415 81.918 51.4985C81.7599 59.266 81.8389 67.1128 81.8389 74.9596Z" fill="white"/>
<path d="M74.9599 75.4352L68.0814 82.7272L65.8676 80.5079L65.9467 80.4286L68.0814 78.3679L70.3742 76.1486H47.9994V72.9782H59.3845H70.2952L65.8676 68.6981L68.2395 66.3203L75.0389 73.6915C75.4342 74.1671 75.3552 74.9597 74.9599 75.4352Z" fill="white"/>
</g>
<defs>
<clipPath id="clip0_669_1034">
<rect width="54" height="60" fill="white" transform="matrix(-1 0 0 1 102 45)"/>
</clipPath>
</defs>
</svg>
