<svg width="25" height="21" viewBox="0 0 25 21" fill="none" xmlns="http://www.w3.org/2000/svg">
<path d="M7.18277 0.392578H23.0887C23.3803 0.392578 23.66 0.50843 23.8662 0.714648C24.0725 0.920865 24.1883 1.20056 24.1883 1.49219V19.086C24.1883 19.3777 24.0725 19.6574 23.8662 19.8636C23.66 20.0698 23.3803 20.1856 23.0887 20.1856H7.18277C7.00178 20.1857 6.82359 20.141 6.66399 20.0557C6.5044 19.9703 6.36834 19.8469 6.26789 19.6963L0.40365 10.8994C0.283089 10.7187 0.21875 10.5063 0.21875 10.2891C0.21875 10.0719 0.283089 9.85952 0.40365 9.67882L6.26789 0.881907C6.36834 0.731352 6.5044 0.607918 6.66399 0.522558C6.82359 0.437198 7.00178 0.392551 7.18277 0.392578ZM14.2918 8.73425L11.1821 5.62345L9.62612 7.1794L12.7369 10.2891L9.62612 13.3988L11.1821 14.9548L14.2918 11.844L17.4015 14.9548L18.9574 13.3988L15.8466 10.2891L18.9574 7.1794L17.4015 5.62345L14.2918 8.73425Z" fill="#006E7D"/>
</svg>
