<svg width="16" height="20" viewBox="0 0 16 20" fill="none" xmlns="http://www.w3.org/2000/svg">
<path d="M7.68369 19.0107C8.70046 19.0107 9.53235 18.1788 9.53235 17.1621H5.83504C5.83504 17.6524 6.02981 18.1226 6.3765 18.4693C6.72319 18.816 7.1934 19.0107 7.68369 19.0107ZM13.2297 13.4648V8.84312C13.2297 6.00543 11.7138 3.62991 9.07019 3.00136V2.37282C9.07019 1.60563 8.45089 0.986328 7.68369 0.986328C6.9165 0.986328 6.2972 1.60563 6.2972 2.37282V3.00136C3.64438 3.62991 2.13772 5.99619 2.13772 8.84312V13.4648L0.289062 15.3134V16.2378H15.0783V15.3134L13.2297 13.4648Z" fill="#147F8D"/>
</svg>
