<svg width="16" height="18" viewBox="0 0 16 18" fill="none" xmlns="http://www.w3.org/2000/svg">
<path d="M12.4901 2.54016C12.4233 2.54032 12.3577 2.52255 12.3 2.4887C10.7142 1.63969 9.34315 1.2795 7.69944 1.2795C6.06395 1.2795 4.511 1.68257 3.09849 2.4887C2.89874 2.60162 2.65254 2.523 2.53677 2.31575C2.48509 2.21572 2.47343 2.09977 2.50416 1.99146C2.53489 1.88314 2.6057 1.79059 2.70221 1.7326C4.22563 0.868569 5.94806 0.416808 7.69944 0.421918C9.45856 0.421918 10.9951 0.824983 12.6802 1.72545C12.7785 1.77951 12.8518 1.86995 12.8842 1.97737C12.9166 2.08479 12.9056 2.20063 12.8535 2.30003C12.8223 2.37061 12.7714 2.43074 12.707 2.4733C12.6426 2.51586 12.5673 2.53906 12.4901 2.54016ZM0.670089 7.04249C0.584266 7.04188 0.500698 7.01493 0.430679 6.9653C0.339581 6.8976 0.278315 6.79718 0.259785 6.68521C0.241256 6.57323 0.266909 6.45843 0.331342 6.36499C1.14927 5.16437 2.18945 4.22103 3.42902 3.56068C6.0225 2.17282 9.34315 2.16282 11.9448 3.55211C13.1841 4.21245 14.2246 5.14722 15.0425 6.33926C15.1067 6.43279 15.1322 6.54751 15.1137 6.65941C15.0952 6.77131 15.0341 6.87171 14.9432 6.93957C14.8991 6.97253 14.8487 6.99608 14.7952 7.00878C14.7416 7.02148 14.686 7.02306 14.6318 7.01341C14.5776 7.00377 14.526 6.98311 14.4801 6.9527C14.4342 6.9223 14.395 6.88281 14.365 6.83666C13.6218 5.75611 12.6802 4.90709 11.565 4.31536C9.1945 3.05471 6.16293 3.05471 3.80064 4.32394C2.6772 4.92425 1.73564 5.78183 0.992398 6.86096C0.96035 6.91775 0.913374 6.96468 0.856561 6.99668C0.799747 7.02867 0.735261 7.04452 0.670089 7.04249ZM5.8324 17.395C5.77781 17.3955 5.72375 17.3843 5.67387 17.3621C5.624 17.3399 5.57948 17.3072 5.54332 17.2663C4.82474 16.5188 4.43525 16.0371 3.88318 15.0009C3.31146 13.9461 3.01594 12.6597 3.01594 11.279C3.01594 8.73193 5.11382 6.65657 7.69122 6.65657C10.2686 6.65657 12.3679 8.73193 12.3679 11.279C12.3696 11.3342 12.3601 11.3892 12.3401 11.4407C12.32 11.4922 12.2899 11.5392 12.2514 11.5789C12.2129 11.6185 12.1668 11.65 12.1159 11.6716C12.065 11.6931 12.0103 11.7042 11.955 11.7042C11.8998 11.7042 11.8451 11.6931 11.7942 11.6716C11.7433 11.65 11.6972 11.6185 11.6587 11.5789C11.6202 11.5392 11.59 11.4922 11.57 11.4407C11.55 11.3892 11.5405 11.3342 11.5421 11.279C11.5421 9.2036 9.81553 7.51416 7.69301 7.51416C5.57048 7.51416 3.84209 9.2036 3.84209 11.279C3.84209 12.5139 4.10615 13.6545 4.60998 14.5807C5.13883 15.5669 5.5033 15.9871 6.13827 16.656C6.21358 16.7393 6.25527 16.8475 6.25527 16.9598C6.25527 17.072 6.21358 17.1802 6.13827 17.2635C6.0572 17.3453 5.94754 17.3924 5.8324 17.395ZM11.7551 15.8084C10.7721 15.8084 9.90487 15.5512 9.1945 15.0452C8.58929 14.621 8.09486 14.0576 7.75284 13.4024C7.41083 12.7472 7.23124 12.0195 7.2292 11.2804C7.22688 11.2247 7.23585 11.1691 7.25556 11.117C7.27528 11.0648 7.30533 11.0172 7.34391 10.977C7.3825 10.9368 7.42882 10.9048 7.48009 10.8829C7.53136 10.861 7.58653 10.8498 7.64227 10.8498C7.69801 10.8498 7.75317 10.861 7.80444 10.8829C7.85571 10.9048 7.90203 10.9368 7.94062 10.977C7.9792 11.0172 8.00926 11.0648 8.02897 11.117C8.04869 11.1691 8.05765 11.2247 8.05534 11.2804C8.05673 11.8807 8.20314 12.4718 8.48211 13.0034C8.76108 13.5349 9.16435 13.9912 9.65759 14.3334C10.244 14.745 10.9297 14.9409 11.7558 14.9409C12.0435 14.9357 12.3304 14.9071 12.6134 14.8551C12.8364 14.8122 13.0511 14.9666 13.0922 15.2067C13.1132 15.3175 13.0893 15.4321 13.0259 15.5254C12.9624 15.6186 12.8646 15.6829 12.7538 15.7041C12.4248 15.7691 12.0905 15.8036 11.7551 15.807V15.8084ZM10.0946 17.5736C10.0583 17.5721 10.0223 17.5664 9.98741 17.5565C8.67387 17.1792 7.81486 16.6732 6.91439 15.7556C5.75772 14.5635 5.12203 12.977 5.12203 11.279C5.12203 9.88967 6.26191 8.75766 7.66585 8.75766C9.06979 8.75766 10.21 9.88967 10.21 11.279C10.21 12.1966 10.9783 12.9427 11.9281 12.9427C12.8778 12.9427 13.6461 12.1966 13.6461 11.279C13.6461 8.04586 10.9615 5.42165 7.65763 5.42165C5.31178 5.42165 3.16424 6.77663 2.19802 8.87772C1.87643 9.57237 1.71063 10.3871 1.71063 11.279C1.71063 11.9479 1.76816 13.0027 2.26377 14.3748C2.34667 14.5978 2.23911 14.8465 2.02436 14.9237C1.97332 14.9431 1.91888 14.9521 1.86431 14.9499C1.80974 14.9478 1.75617 14.9346 1.7068 14.9113C1.65744 14.8879 1.61331 14.8548 1.57706 14.814C1.54081 14.7731 1.5132 14.7254 1.49587 14.6736C1.09733 13.5862 0.893167 12.4371 0.892704 11.279C0.892704 10.2499 1.0828 9.31366 1.45442 8.50038C2.55321 6.10629 4.98982 4.55548 7.65763 4.55548C11.416 4.55548 14.4722 7.56561 14.4722 11.2704C14.4722 12.6597 13.3324 13.7917 11.9281 13.7917C10.5238 13.7917 9.38388 12.6597 9.38388 11.2704C9.38424 10.3528 8.61598 9.60524 7.66621 9.60524C6.71643 9.60524 5.94818 10.3513 5.94818 11.269C5.94818 12.734 6.49346 14.1076 7.4929 15.1367C8.27903 15.9428 9.02941 16.3873 10.1939 16.7232C10.4169 16.7832 10.5409 17.0234 10.483 17.2463C10.465 17.3368 10.4167 17.4185 10.3461 17.478C10.2756 17.5375 10.1869 17.5712 10.0946 17.5736Z" fill="#147F8D"/>
</svg>
