<svg width="17" height="18" viewBox="0 0 17 18" fill="none" xmlns="http://www.w3.org/2000/svg">
<path d="M8.5 0.53125C9.18613 0.531153 9.84752 0.787555 10.3543 1.25011C10.8611 1.71267 11.1766 2.34796 11.239 3.03125H15.5C15.69 3.03131 15.8729 3.10349 16.0118 3.23322C16.1506 3.36295 16.2351 3.54055 16.248 3.73013C16.261 3.91971 16.2015 4.10714 16.0816 4.25455C15.9617 4.40196 15.7902 4.49835 15.602 4.52425L15.5 4.53125H14.917L13.65 15.5112C13.5936 15.9986 13.36 16.4483 12.9936 16.7747C12.6272 17.101 12.1537 17.2813 11.663 17.2812H5.337C4.84635 17.2813 4.37279 17.101 4.00642 16.7747C3.64005 16.4483 3.40642 15.9986 3.35 15.5112L2.082 4.53125H1.5C1.31876 4.53124 1.14366 4.46561 1.00707 4.34648C0.870481 4.22736 0.781648 4.0628 0.757 3.88325L0.75 3.78125C0.750008 3.60001 0.815643 3.42491 0.934767 3.28832C1.05389 3.15173 1.21845 3.0629 1.398 3.03825L1.5 3.03125H5.761C5.82338 2.34796 6.13893 1.71267 6.64571 1.25011C7.15248 0.787555 7.81387 0.531153 8.5 0.53125ZM7 6.78125C6.755 6.78125 6.55 6.93625 6.508 7.14025L6.5 7.21925V13.3442L6.508 13.4222C6.55 13.6262 6.755 13.7812 7 13.7812C7.245 13.7812 7.45 13.6262 7.492 13.4222L7.5 13.3433V7.22025L7.492 7.14025C7.45 6.93725 7.245 6.78125 7 6.78125ZM10 6.78125C9.755 6.78125 9.55 6.93625 9.508 7.14025L9.5 7.21925V13.3442L9.508 13.4222C9.55 13.6262 9.755 13.7812 10 13.7812C10.245 13.7812 10.45 13.6262 10.492 13.4222L10.5 13.3433V7.22025L10.492 7.14025C10.45 6.93725 10.245 6.78225 10 6.78225V6.78125ZM8.5 2.03125C7.895 2.03125 7.39 2.46125 7.275 3.03125H9.725C9.609 2.46125 9.105 2.03125 8.5 2.03125Z" fill="#147F8D"/>
</svg>
