<svg width="150" height="150" viewBox="0 0 150 150" fill="none" xmlns="http://www.w3.org/2000/svg">
<circle cx="75" cy="75" r="74" fill="white" stroke="#F1F1F1" stroke-width="2"/>
<g clip-path="url(#clip0_781_177)">
<path d="M92.7496 79.953V79.2396H89.5081V80.0322C89.5081 84.6293 89.5081 89.1471 89.5081 93.665C89.5081 95.5672 88.4012 96.5976 86.5827 96.5976H71.9561C71.7979 96.5976 71.5608 96.6769 71.4026 96.5183V53.2423H86.3455C88.4802 53.2423 89.5081 54.2726 89.5081 56.4127V72.661C89.5081 72.7403 89.5081 72.8195 89.5081 72.8988H92.6706V72.5818C92.6706 70.6002 92.6706 68.5395 92.6706 66.558C92.6706 63.1498 92.6706 59.6623 92.6706 56.2541C92.6706 52.6082 90.1406 50.0718 86.5037 50.0718H71.3236C71.3236 49.9926 71.2445 49.9133 71.2445 49.8341C70.2167 46.0296 66.817 44.2066 63.101 45.3955C59.7013 46.5844 56.2225 47.7733 52.8228 48.8037C50.2138 49.5963 48 51.8156 48.0791 55.3823C48.1581 63.3876 48.0791 71.4721 48.0791 79.4774C48 84.6293 48 89.702 48 94.8539C48 97.945 49.5813 100.085 52.4275 101.036C56.0644 102.225 59.7013 103.493 63.3382 104.682C66.6589 105.792 70.2167 103.89 71.1654 100.561C71.2445 100.323 71.1654 100.085 71.4026 99.9265H72.1142C76.858 99.9265 81.6808 99.8473 86.4246 99.9265C89.9824 100.006 92.9078 97.3902 92.8287 93.5065C92.6706 88.9886 92.7496 84.4708 92.7496 79.953ZM68.1611 74.9596V98.4999C68.1611 100.244 67.3704 101.353 65.8682 101.75C65.3148 101.908 64.7613 101.829 64.2079 101.591C60.571 100.402 56.9341 99.2132 53.2972 97.945C51.795 97.4695 51.1625 96.4391 51.1625 94.7746V55.4615C51.1625 53.4008 51.716 52.6082 53.6925 51.8948C57.0922 50.7852 60.571 49.5963 63.9707 48.4866C66.2635 47.694 68.082 49.0415 68.082 51.4985C68.2401 59.266 68.1611 67.1128 68.1611 74.9596Z" fill="#9C9F9F"/>
<path d="M75.0401 75.4352L81.9186 82.7272L84.1324 80.5079L84.0533 80.4286L81.9186 78.3679L79.6258 76.1486H102.001V72.9782H90.6155H79.7048L84.1324 68.6981L81.7605 66.3203L74.9611 73.6915C74.5658 74.1671 74.6448 74.9597 75.0401 75.4352Z" fill="#9C9F9F"/>
</g>
<defs>
<clipPath id="clip0_781_177">
<rect width="54" height="60" fill="white" transform="translate(48 45)"/>
</clipPath>
</defs>
</svg>
