<svg width="150" height="150" viewBox="0 0 150 150" fill="none" xmlns="http://www.w3.org/2000/svg">
<circle cx="75" cy="75" r="74" fill="white" stroke="#006E7D" stroke-width="2"/>
<g clip-path="url(#clip0_781_170)">
<path d="M90.6584 79.953V79.2396H87.4959V80.0322C87.4959 84.6293 87.4959 89.1471 87.4959 93.665C87.4959 95.5672 86.416 96.5976 84.6419 96.5976H70.3719C70.2176 96.5976 69.9862 96.6769 69.832 96.5183V53.2423H84.4105C86.4931 53.2423 87.4959 54.2726 87.4959 56.4127V72.661C87.4959 72.7403 87.4959 72.8195 87.4959 72.8988H90.5813V72.5818C90.5813 70.6002 90.5813 68.5395 90.5813 66.558C90.5813 63.1498 90.5813 59.6623 90.5813 56.2541C90.5813 52.6082 88.1129 50.0718 84.5647 50.0718H69.7548C69.7548 49.9926 69.6777 49.9133 69.6777 49.8341C68.6749 46.0296 65.3581 44.2066 61.7328 45.3955C58.416 46.5844 55.022 47.7733 51.7052 48.8037C49.1598 49.5963 47 51.8156 47.0771 55.3823C47.1543 63.3876 47.0771 71.4721 47.0771 79.4774C47 84.6293 47 89.702 47 94.8539C47 97.945 48.5427 100.085 51.3196 101.036C54.8678 102.225 58.416 103.493 61.9642 104.682C65.2039 105.792 68.6749 103.89 69.6005 100.561C69.6777 100.323 69.6006 100.085 69.832 99.9265H70.5262C75.1543 99.9265 79.8595 99.8473 84.4876 99.9265C87.9587 100.006 90.8127 97.3902 90.7355 93.5065C90.5813 88.9886 90.6584 84.4708 90.6584 79.953ZM66.6694 74.9596V98.4999C66.6694 100.244 65.8981 101.353 64.4325 101.75C63.8926 101.908 63.3526 101.829 62.8127 101.591C59.2645 100.402 55.7163 99.2132 52.168 97.945C50.7025 97.4695 50.0854 96.4391 50.0854 94.7746V55.4615C50.0854 53.4008 50.6253 52.6082 52.5537 51.8948C55.8705 50.7852 59.2645 49.5963 62.5813 48.4866C64.8182 47.694 66.5923 49.0415 66.5923 51.4985C66.7466 59.266 66.6694 67.1128 66.6694 74.9596Z" fill="#006E7D"/>
<path d="M102.692 75.4352L95.981 82.7272L93.8212 80.5079L93.8983 80.4286L95.981 78.3679L98.2179 76.1486H76.3887V72.9782H87.4961H98.1407L93.8212 68.6981L96.1352 66.3203L102.769 73.6915C103.155 74.1671 103.155 74.9597 102.692 75.4352Z" fill="#006E7D"/>
</g>
<defs>
<clipPath id="clip0_781_170">
<rect width="56" height="60" fill="white" transform="translate(47 45)"/>
</clipPath>
</defs>
</svg>
