<svg width="25" height="25" viewBox="0 0 25 25" fill="none" xmlns="http://www.w3.org/2000/svg">
<path d="M12.3687 0.615234C5.83274 0.615234 0.533203 5.91477 0.533203 12.4507C0.533203 18.9866 5.83274 24.2861 12.3687 24.2861C18.9046 24.2861 24.2041 18.9866 24.2041 12.4507C24.2041 5.91477 18.9046 0.615234 12.3687 0.615234ZM12.3687 22.2783C6.94231 22.2783 2.541 17.877 2.541 12.4507C2.541 7.02435 6.94231 2.62304 12.3687 2.62304C17.795 2.62304 22.1963 7.02435 22.1963 12.4507C22.1963 17.877 17.795 22.2783 12.3687 22.2783Z" fill="#04ACDD"/>
<path d="M15.3178 7.29203C14.5253 6.59722 13.4791 6.2168 12.3695 6.2168C11.26 6.2168 10.2138 6.59986 9.42123 7.29203C8.59697 8.01325 8.14258 8.98281 8.14258 10.0211V10.2218C8.14258 10.3381 8.23768 10.4332 8.35393 10.4332H9.62201C9.73825 10.4332 9.83336 10.3381 9.83336 10.2218V10.0211C9.83336 8.856 10.972 7.90758 12.3695 7.90758C13.7671 7.90758 14.9057 8.856 14.9057 10.0211C14.9057 10.8427 14.3245 11.5956 13.4236 11.9417C12.8636 12.1557 12.388 12.5308 12.0472 13.0222C11.7011 13.5241 11.5215 14.1265 11.5215 14.7367V15.3047C11.5215 15.421 11.6166 15.5161 11.7328 15.5161H13.0009C13.1172 15.5161 13.2123 15.421 13.2123 15.3047V14.705C13.2136 14.4486 13.2923 14.1985 13.4379 13.9873C13.5835 13.7762 13.7894 13.6139 14.0286 13.5215C15.5873 12.9218 16.5938 11.548 16.5938 10.0211C16.5965 8.98281 16.1421 8.01325 15.3178 7.29203ZM11.3128 18.2636C11.3128 18.5439 11.4241 18.8127 11.6223 19.0108C11.8205 19.209 12.0893 19.3203 12.3695 19.3203C12.6498 19.3203 12.9186 19.209 13.1168 19.0108C13.3149 18.8127 13.4263 18.5439 13.4263 18.2636C13.4263 17.9833 13.3149 17.7146 13.1168 17.5164C12.9186 17.3182 12.6498 17.2069 12.3695 17.2069C12.0893 17.2069 11.8205 17.3182 11.6223 17.5164C11.4241 17.7146 11.3128 17.9833 11.3128 18.2636Z" fill="#04ACDD"/>
</svg>
