<svg width="30" height="30" viewBox="0 0 30 30" fill="none" xmlns="http://www.w3.org/2000/svg">
<path d="M7.22226 1H4.11113C3.28601 1 2.49468 1.32778 1.91123 1.91123C1.32778 2.49468 1 3.28601 1 4.11113V7.22226" stroke="white" stroke-width="1.5" stroke-linecap="round" stroke-linejoin="round"/>
<path d="M22.7773 1H25.8885C26.7136 1 27.5049 1.32778 28.0884 1.91123C28.6718 2.49468 28.9996 3.28601 28.9996 4.11113V7.22226" stroke="white" stroke-width="1.5" stroke-linecap="round" stroke-linejoin="round"/>
<path d="M21.2227 8.77734V11.8885" stroke="white" stroke-width="1.5" stroke-linecap="round" stroke-linejoin="round"/>
<path d="M8.77734 8.77734V11.8885" stroke="white" stroke-width="1.5" stroke-linecap="round" stroke-linejoin="round"/>
<path d="M10.334 21.2227C10.334 21.2227 11.8896 22.7782 15.0007 22.7782C18.1118 22.7782 19.6674 21.2227 19.6674 21.2227" stroke="white" stroke-width="1.5" stroke-linecap="round" stroke-linejoin="round"/>
<path d="M14.9989 8.77734V16.5552H13.4434" stroke="white" stroke-width="1.5" stroke-linecap="round" stroke-linejoin="round"/>
<path d="M7.22226 28.9996H4.11113C3.28601 28.9996 2.49468 28.6718 1.91123 28.0884C1.32778 27.5049 1 26.7136 1 25.8885V22.7773" stroke="white" stroke-width="1.5" stroke-linecap="round" stroke-linejoin="round"/>
<path d="M22.7773 28.9996H25.8885C26.7136 28.9996 27.5049 28.6718 28.0884 28.0884C28.6718 27.5049 28.9996 26.7136 28.9996 25.8885V22.7773" stroke="white" stroke-width="1.5" stroke-linecap="round" stroke-linejoin="round"/>
</svg>
