<svg width="150" height="150" viewBox="0 0 150 150" fill="none" xmlns="http://www.w3.org/2000/svg">
<circle cx="75" cy="75" r="74" fill="white" stroke="#006E7D" stroke-width="2"/>
<path d="M51.5029 59.42C50.9827 58.4668 50.5491 57.5136 50.1156 56.6471C48.4682 53.1809 50.0289 49.3681 53.6705 48.155C54.0173 48.0683 54.2775 47.8083 54.6243 47.635C56.0983 46.5085 57.5723 45.642 59.4798 45.2087C61.474 44.7755 63.3815 45.0354 65.289 45.8153C66.3295 46.2486 67.2832 46.6818 68.3237 47.2018C71.5318 48.7615 73.2659 52.141 72.659 55.6939C72.659 55.7805 72.659 55.8672 72.5723 56.0405C74.0462 55.7805 75.4335 55.6072 76.9075 55.9538C76.9075 55.3472 76.6474 54.8273 76.6474 54.3074C76.5607 51.4478 78.1214 49.1948 80.8092 48.2416C81.5029 47.9816 81.9364 47.5484 82.4566 47.1151C84.2775 45.7286 86.2717 45.0354 88.6127 45.0354C89.4798 45.0354 90.3468 45.1221 91.1272 45.382C93.0347 45.9886 94.7688 46.6818 96.4162 47.8083C99.4509 49.8014 100.665 53.7008 99.3642 57.0803C99.0173 57.8602 98.6705 58.7267 98.3237 59.5066C100.231 59.8533 101.185 60.9798 101.185 62.5395C101.098 64.0993 100.058 65.1391 98.0636 65.3991C97.4566 68.0854 95.9827 70.1651 93.6416 71.6382C93.4682 71.7249 93.3815 71.8982 93.3815 72.0715C93.3815 72.7647 93.2081 73.6312 93.4682 74.2378C93.7283 74.8444 94.6821 74.8444 95.289 75.1044C97.4566 75.9709 99.5376 76.9241 101.705 77.7906C103.96 78.7438 105 80.3036 105 82.8166C105 86.8893 105 90.962 105 94.9481C105 95.988 104.74 96.2479 103.699 96.2479C101.618 96.2479 99.4509 96.2479 97.3699 96.2479C97.1965 96.4213 97.2832 96.5946 97.2832 96.7679C97.2832 99.1075 97.2832 101.361 97.2832 103.7C97.2832 104.653 96.9364 105 95.9827 105C82.0231 105 67.9769 105 54.0173 105C53.0636 105 52.7168 104.653 52.7168 103.7C52.7168 101.274 52.7168 98.7609 52.7168 96.3346C52.5434 96.1613 52.3699 96.2479 52.1965 96.2479C50.2023 96.2479 48.2081 96.2479 46.3006 96.2479C45.3468 96.2479 45 95.9013 45 94.9481C45 90.7887 45 86.6293 45 82.3833C45 80.2169 46.1272 78.5705 48.1214 77.7906C50.7225 76.6641 53.4104 75.6243 56.0116 74.4978C56.185 74.4111 56.4451 74.3245 56.6185 74.2378C56.6185 73.4579 56.6185 72.7647 56.6185 71.9848C56.6185 71.7249 56.5318 71.6382 56.3584 71.4649C54.0173 69.9918 52.5434 67.9121 51.9364 65.2258C49.8555 64.9658 48.815 63.926 48.815 62.2796C48.6416 60.8064 49.6821 59.7666 51.5029 59.42ZM102.919 94.2549C102.919 90.3555 102.919 86.5427 102.919 82.7299C102.919 81.0835 102.312 80.2169 100.751 79.5237C97.8902 78.3106 94.9422 77.0974 92.0809 75.8842C91.5607 75.6243 91.3006 75.2777 91.3006 74.6711C91.3006 73.6312 91.3006 72.5047 91.3006 71.4649C91.3006 70.7717 91.5607 70.3384 92.1676 69.9918C94.1618 68.9519 95.3757 67.3055 95.896 65.1391C96.3295 63.4061 96.3295 63.4061 98.0636 63.2328C98.6705 63.1461 99.0173 62.7995 99.0173 62.2796C99.0173 61.7596 98.6705 61.413 98.0636 61.3264C97.8035 61.3264 97.4566 61.3264 97.1965 61.3264C96.5029 61.3264 96.1561 60.9798 96.1561 60.2865C96.1561 59.5933 96.1561 58.9867 96.5029 58.3801C96.8497 57.6869 97.1098 56.9937 97.4566 56.2138C98.4971 53.3542 97.3699 50.2347 94.5954 48.8482C93.815 48.4149 92.948 48.0683 92.1676 47.7217C89.0462 46.2486 86.0983 46.5952 83.3237 48.7615C82.6301 49.2815 81.9364 49.888 81.0694 50.0613C80.6358 50.148 80.2023 50.4946 79.8555 50.7546C78.815 51.7078 78.2948 53.0076 78.5549 54.394C78.7283 55.6939 79.3353 56.8204 80.8092 57.2536C81.0694 57.3403 81.3295 57.5136 81.5896 57.6002C85.578 59.5066 87.3121 63.8393 85.578 67.9121C85.3179 68.6053 84.9711 69.2985 84.711 70.0784C85.0578 70.0784 85.3179 70.0784 85.6647 70.0784C87.3121 70.0784 88.526 71.3782 88.526 73.0247C88.526 74.5844 87.2254 75.8842 85.6647 75.8842C85.2312 75.8842 84.8844 75.8842 84.4509 75.8842C83.8439 78.5705 82.3699 80.6502 80.1156 82.1233C79.9422 82.21 79.7688 82.3833 79.7688 82.6433C79.7688 83.3365 79.7688 84.1164 79.7688 84.8096C79.9422 84.8963 80.1156 84.8963 80.289 84.9829C84.711 86.1961 89.2197 87.4092 93.6416 88.709C95.5491 89.229 96.6763 90.6154 97.1098 92.5218C97.1965 93.1284 97.1098 93.6483 97.1965 94.2549C99.104 94.2549 101.012 94.2549 102.919 94.2549ZM52.6301 94.2549C52.6301 93.9949 52.6301 93.735 52.6301 93.475C52.6301 91.0487 54.0173 89.229 56.3584 88.6224C59.4798 87.7559 62.6012 86.8893 65.7225 86.0228C67.1965 85.5895 68.5838 85.2429 70.0578 84.8096C70.0578 84.1164 70.0578 83.4231 70.0578 82.7299C70.0578 82.3833 69.9711 82.21 69.6243 82.0367C67.7168 80.8235 66.4162 79.0904 65.6358 77.0107C65.5491 76.6641 65.3757 76.2309 65.289 75.8842C62.5145 75.7109 61.3006 74.8444 61.2139 73.0247C61.1272 71.2049 62.341 70.2517 64.9422 69.9918C64.422 68.9519 63.9017 67.9987 63.4682 67.0455C61.9075 63.7527 63.5549 59.9399 66.9364 58.8134C67.1965 58.7267 67.3699 58.6401 67.6301 58.5534C68.3237 58.0335 69.0173 57.4269 69.7977 56.9937C69.9711 56.907 70.0578 56.7337 70.1445 56.5604C71.3584 53.6142 70.2312 50.408 67.3699 48.9348C66.3295 48.4149 65.2023 47.895 64.1618 47.4617C62.6879 46.8551 61.1272 46.7685 59.5665 47.1151C58.0925 47.4617 56.8786 48.2416 55.6647 49.1082C55.2312 49.4548 54.8844 49.8014 54.3642 49.9747C51.6763 50.7546 50.5491 53.3542 51.763 55.8672C52.1965 56.7337 52.6301 57.6869 53.0636 58.4668C53.4104 59.0734 53.4971 59.7666 53.4104 60.4598C53.4104 61.0664 52.9769 61.413 52.4566 61.413C52.1098 61.413 51.763 61.413 51.4162 61.413C50.896 61.4997 50.5491 61.8463 50.5491 62.3662C50.5491 62.8861 50.896 63.2328 51.4162 63.3194C51.6763 63.3194 52.0231 63.3194 52.2832 63.3194C53.0636 63.3194 53.4104 63.5794 53.4971 64.3593C53.9306 66.9589 55.3179 68.9519 57.5723 70.1651C58.0058 70.425 58.2659 70.7717 58.2659 71.2916C58.2659 72.3314 58.2659 73.4579 58.2659 74.4978C58.2659 75.451 58.1792 75.6243 57.2254 75.9709C54.3642 77.1841 51.5029 78.3106 48.6416 79.5237C47.2543 80.1303 46.5607 81.0835 46.5607 82.6433C46.5607 86.2827 46.5607 90.0089 46.5607 93.6483C46.5607 93.8216 46.5607 94.0816 46.5607 94.2549C48.7283 94.2549 50.6358 94.2549 52.6301 94.2549ZM95.2023 103.007C95.2023 99.7141 95.2023 96.4213 95.2023 93.2151C95.2023 92.0019 94.3353 90.962 93.1214 90.6154C88.6127 89.3156 84.0173 88.1025 79.422 86.8027C79.1618 86.716 78.9884 86.8027 78.7283 86.976C77.7746 88.0158 76.7341 88.969 75.6936 90.0089C75 90.6154 74.5665 90.6154 73.9595 90.0089C73.0058 89.0557 71.9653 88.0158 71.0116 87.0626C70.7514 86.8027 70.578 86.716 70.2312 86.8893C65.7225 88.1891 61.3006 89.4023 56.7919 90.6154C55.2312 91.0487 54.4509 92.0886 54.4509 93.6483C54.4509 96.5946 54.4509 99.6274 54.4509 102.574C54.4509 102.747 54.3642 102.92 54.5376 103.007C56.4451 103.007 58.3526 103.007 60.3468 103.007C60.3468 100.407 60.3468 97.8944 60.3468 95.2947C61.0405 95.2947 61.6474 95.2947 62.2543 95.2947C62.2543 97.8944 62.2543 100.407 62.2543 103.007C70.6647 103.007 78.9884 103.007 87.3988 103.007C87.3988 100.407 87.3988 97.8944 87.3988 95.2947C88.0925 95.2947 88.6994 95.2947 89.3064 95.2947C89.3064 97.8944 89.3064 100.407 89.3064 103.007C91.3873 103.007 93.2081 103.007 95.2023 103.007ZM81.3295 67.7388C76.9942 70.945 72.7457 70.8583 68.4104 67.7388C67.1098 69.9918 67.1098 69.9918 67.1098 72.5047C67.1098 73.0247 67.1098 73.5446 67.1098 73.9779C67.1965 77.9639 70.1445 81.1701 74.1329 81.6034C77.8613 82.0367 81.5029 79.4371 82.3699 75.7109C82.8035 73.8912 82.5434 72.0715 82.6301 70.2517C82.6301 70.1651 82.5433 70.0784 82.5433 69.9918C82.1098 69.2985 81.763 68.5187 81.3295 67.7388ZM83.4971 67.7388C85.1445 64.2726 83.9306 60.8931 80.6358 59.3333C79.9422 58.9867 79.2486 58.7267 78.4682 58.3801C77.5144 57.9469 76.5607 57.6869 75.6069 57.6002C73.9595 57.4269 72.3988 57.8602 70.7514 58.7267C72.4856 59.2467 73.7861 60.2865 74.6532 61.8463C74.1329 62.1929 73.6127 62.5395 73.0925 62.8861C72.8324 62.5395 72.659 62.2796 72.4856 62.0196C71.2717 60.7198 69.7977 60.1132 68.0636 60.5465C66.4162 60.9798 65.3757 62.1063 65.0289 63.7527C64.6821 65.3125 65.4624 66.5256 66.1561 67.9121C66.5029 67.2188 66.763 66.6989 67.1098 66.0923C67.5434 65.1391 68.0636 65.0525 68.9306 65.6591C69.4509 66.0057 69.9711 66.439 70.4913 66.7856C72.5723 68.172 74.7399 68.5187 77.0809 67.8254C78.5549 67.3922 79.6821 66.439 80.896 65.5724C81.5896 65.0525 82.1965 65.1391 82.6301 66.0057C82.8902 66.5256 83.1503 67.1322 83.4971 67.7388ZM77.7746 83.1632C75.867 83.7698 73.9595 83.7698 71.9653 83.1632C71.9653 83.6831 71.9653 84.203 71.9653 84.723C71.9653 84.8963 71.9653 85.0696 72.1387 85.2429C73.0058 86.1961 73.9595 87.0626 74.9133 88.0158C75.8671 87.0626 76.8208 86.1094 77.6879 85.2429C77.7746 85.1562 77.8613 84.9829 77.8613 84.8963C77.7746 84.3763 77.7746 83.8564 77.7746 83.1632ZM65.1156 72.0715C63.7283 71.9848 63.2081 72.3314 63.2081 73.1113C63.2081 73.8912 63.815 74.1512 65.1156 73.9779C65.1156 73.2846 65.1156 72.678 65.1156 72.0715ZM84.5376 73.9779C85.2312 73.8912 85.9249 74.1512 86.3584 73.4579C86.5318 73.1113 86.5318 72.7647 86.2717 72.4181C85.8381 71.8115 85.1445 72.0715 84.5376 72.0715C84.5376 72.678 84.5376 73.2846 84.5376 73.9779Z" fill="#006E7D"/>
</svg>
