<svg width="18" height="20" viewBox="0 0 18 20" fill="none" xmlns="http://www.w3.org/2000/svg">
<path d="M7.9695 0.420128C8.248 0.150328 8.61673 0 9 0C9.38327 0 9.752 0.150328 10.0305 0.420128L17.2965 7.45806C17.7465 7.89303 18 8.50015 18 9.13339V17.6945C18 18.306 17.7629 18.8924 17.341 19.3247C16.919 19.7571 16.3467 20 15.75 20H12.75C12.4544 20 12.1617 19.9403 11.8886 19.8244C11.6155 19.7084 11.3674 19.5384 11.1585 19.3242C10.9495 19.1099 10.7838 18.8556 10.6708 18.5757C10.5579 18.2958 10.4998 17.9959 10.5 17.693V13.8505C10.5 13.6466 10.421 13.4512 10.2803 13.307C10.1397 13.1629 9.94891 13.082 9.75 13.082H8.25C8.05109 13.082 7.86032 13.1629 7.71967 13.307C7.57902 13.4512 7.5 13.6466 7.5 13.8505V17.693C7.5 18.3044 7.26295 18.8908 6.84099 19.3232C6.41903 19.7556 5.84674 19.9985 5.25 19.9985H2.25C1.65326 19.9985 1.08097 19.7556 0.65901 19.3232C0.237053 18.8908 0 18.3044 0 17.693V9.13186C0 8.49861 0.255 7.8915 0.705 7.45652L7.9695 0.417054V0.420128ZM9 1.53599L1.734 8.57546C1.66024 8.64712 1.60146 8.73339 1.56123 8.82903C1.52101 8.92468 1.50017 9.02771 1.5 9.13186V17.693C1.5 17.8968 1.57902 18.0923 1.71967 18.2364C1.86032 18.3805 2.05109 18.4615 2.25 18.4615H5.25C5.44891 18.4615 5.63968 18.3805 5.78033 18.2364C5.92098 18.0923 6 17.8968 6 17.693V13.8505C6 13.239 6.23705 12.6526 6.65901 12.2202C7.08097 11.7879 7.65326 11.545 8.25 11.545H9.75C10.3467 11.545 10.919 11.7879 11.341 12.2202C11.7629 12.6526 12 13.239 12 13.8505V17.693C12 17.8968 12.079 18.0923 12.2197 18.2364C12.3603 18.3805 12.5511 18.4615 12.75 18.4615H15.75C15.9489 18.4615 16.1397 18.3805 16.2803 18.2364C16.421 18.0923 16.5 17.8968 16.5 17.693V9.13186C16.5 9.02745 16.4793 8.92413 16.4391 8.8282C16.3988 8.73228 16.3399 8.64576 16.266 8.57393L9 1.53599Z" fill="#147F8D"/>
</svg>
