<svg width="17" height="17" viewBox="0 0 17 17" fill="none" xmlns="http://www.w3.org/2000/svg">
<path fill-rule="evenodd" clip-rule="evenodd" d="M3.42236 6.61034V3.96671C3.42236 3.48067 3.51809 2.9994 3.70409 2.55036C3.89008 2.10133 4.1627 1.69332 4.50638 1.34965C4.85006 1.00597 5.25806 0.73335 5.7071 0.547353C6.15613 0.361356 6.63741 0.265625 7.12344 0.265625C7.60947 0.265625 8.09075 0.361356 8.53978 0.547353C8.98882 0.73335 9.39682 1.00597 9.7405 1.34965C10.0842 1.69332 10.3568 2.10133 10.5428 2.55036C10.7288 2.9994 10.8245 3.48067 10.8245 3.96671V6.61034H12.4107C12.8314 6.61034 13.2348 6.77745 13.5323 7.07492C13.8298 7.37239 13.9969 7.77584 13.9969 8.19652V8.77812C14.5945 8.89947 15.1318 9.22369 15.5177 9.69585C15.9036 10.168 16.1144 10.7591 16.1144 11.3689C16.1144 11.9787 15.9036 12.5697 15.5177 13.0419C15.1318 13.5141 14.5945 13.8383 13.9969 13.9596V14.5412C13.9969 14.9619 13.8298 15.3654 13.5323 15.6628C13.2348 15.9603 12.8314 16.1274 12.4107 16.1274H1.83618C1.4155 16.1274 1.01205 15.9603 0.714581 15.6628C0.417115 15.3654 0.25 14.9619 0.25 14.5412L0.25 8.19652C0.25 7.77584 0.417115 7.37239 0.714581 7.07492C1.01205 6.77745 1.4155 6.61034 1.83618 6.61034H3.42236ZM4.47981 3.96671C4.47981 3.26557 4.75833 2.59316 5.25411 2.09738C5.74989 1.6016 6.42231 1.32308 7.12344 1.32308C7.82457 1.32308 8.49699 1.6016 8.99277 2.09738C9.48855 2.59316 9.76707 3.26557 9.76707 3.96671V6.61034H4.47981V3.96671ZM9.23835 9.7827C8.81766 9.7827 8.41421 9.94981 8.11675 10.2473C7.81928 10.5447 7.65217 10.9482 7.65217 11.3689C7.65217 11.7896 7.81928 12.193 8.11675 12.4905C8.41421 12.7879 8.81766 12.9551 9.23835 12.9551H13.4682C13.8888 12.9551 14.2923 12.7879 14.5898 12.4905C14.8872 12.193 15.0543 11.7896 15.0543 11.3689C15.0543 10.9482 14.8872 10.5447 14.5898 10.2473C14.2923 9.94981 13.8888 9.7827 13.4682 9.7827H9.23835Z" fill="#147F8D"/>
</svg>
