<svg width="16" height="15" viewBox="0 0 16 15" fill="none" xmlns="http://www.w3.org/2000/svg">
<path d="M9.30548 4.63586V3.08355C9.30548 2.67186 9.14159 2.27702 8.84987 1.98591C8.55815 1.6948 8.16249 1.53125 7.74994 1.53125H2.30554C1.89299 1.53125 1.49733 1.6948 1.20561 1.98591C0.913887 2.27702 0.75 2.67186 0.75 3.08355V12.3974C0.75 12.8091 0.913887 13.2039 1.20561 13.495C1.49733 13.7861 1.89299 13.9497 2.30554 13.9497H7.74994C8.16249 13.9497 8.55815 13.7861 8.84987 13.495C9.14159 13.2039 9.30548 12.8091 9.30548 12.3974V10.8451" stroke="#147F8D" stroke-width="1.25" stroke-linecap="round" stroke-linejoin="round"/>
<path d="M3.85938 7.74114H14.7482M14.7482 7.74114L12.4149 5.04297M14.7482 7.74114L12.4149 10.0696" stroke="#147F8D" stroke-width="1.25" stroke-linecap="round" stroke-linejoin="round"/>
</svg>
