<svg width="150" height="150" viewBox="0 0 150 150" fill="none" xmlns="http://www.w3.org/2000/svg">
<circle cx="75" cy="75" r="74" fill="white" stroke="#006E7D" stroke-width="2"/>
<path d="M101.79 89.8485C101.266 87.4285 99.9029 85.8502 97.5961 85.2189C92.2485 83.6406 86.7961 82.1675 81.4485 80.6944C81.2388 80.6944 81.0291 80.5892 80.8194 80.484C80.8194 79.537 80.8194 78.6953 80.8194 77.8535C80.8194 77.5379 81.0291 77.4327 81.2388 77.2222C83.965 75.4335 85.7476 72.9082 86.4816 69.6465C86.901 69.6465 87.4252 69.6465 87.9495 69.6465C89.9417 69.6465 91.4097 68.0682 91.4097 66.1742C91.4097 64.2803 89.8369 62.702 87.9495 62.5968C87.6349 62.5968 87.3204 62.5968 86.7961 62.5968C87.2155 61.6498 87.5301 60.8081 87.8447 59.9663C89.9417 55.021 87.8447 49.6549 83.0214 47.4453L80.7146 46.3931C79.2466 45.5513 77.2544 45.2357 77.2544 45.2357V45.1305V45.2357C75.4718 44.8148 73.7942 45.0253 72.1165 45.3409C72.1165 45.3409 70.0194 45.9722 69.1806 46.6035L69.0757 46.7088C69.0757 46.7088 68.9709 46.7088 68.9709 46.814C68.132 47.3401 67.2932 47.9714 66.4544 48.6027C66.2447 48.8131 65.9301 48.8131 65.6155 48.9183C61.4214 50.3914 59.534 55.021 61.4214 58.9141C61.9456 60.0715 62.5748 61.3342 63.2039 62.4916C60.0583 62.8072 58.6951 63.9646 58.6951 66.1742C58.6951 68.3838 60.268 69.436 63.6233 69.6465C63.7282 70.0673 63.833 70.5934 64.0427 71.0143C64.9864 73.6448 66.5592 75.6439 68.7612 77.117C69.0757 77.3274 69.2854 77.5379 69.2854 77.9588C69.2854 78.8005 69.2854 79.537 69.2854 80.484C67.5029 81.0101 65.8252 81.431 64.0427 81.9571C60.268 83.0093 56.4932 84.0614 52.7184 85.1136C49.6777 85.9554 48 88.165 48 91.1111V103.422C48 104.579 48.4194 105 49.5728 105H100.427C101.581 105 102 104.579 102 103.422V95.0042C102 94.899 102 94.7938 102 94.6885V92.0581C101.79 91.2163 101.895 90.585 101.79 89.8485ZM86.6913 65.0168C87.4252 65.0168 88.1592 64.7012 88.7884 65.4377C89.1029 65.7534 89.2078 66.2795 88.8932 66.7003C88.3689 67.6473 87.5301 67.3316 86.6913 67.3316V65.0168ZM63.2039 67.2264C61.6311 67.4369 60.8971 67.1212 60.8971 66.1742C60.8971 65.2273 61.5262 64.9116 63.2039 64.9116V67.2264ZM64.3573 59.9663C63.5184 58.2828 62.5748 56.8098 62.9942 54.9158C63.4136 52.9167 64.6718 51.5488 66.6641 51.0227C68.7612 50.4966 70.6485 51.1279 72.0117 52.8114C72.3262 53.1271 72.5359 53.4428 72.7456 53.8636C73.3748 53.4428 74.0039 53.0219 74.633 52.601C73.5845 50.7071 72.0117 49.5497 69.9146 48.8131C71.8019 47.6557 73.6893 47.2348 75.7864 47.4453C77.0447 47.5505 78.1981 47.8662 79.2466 48.3923C80.0854 48.8131 81.0291 49.234 81.868 49.5497C85.9573 51.4436 87.4252 55.6524 85.3282 59.7559C84.9087 59.0194 84.5942 58.2828 84.2796 57.5463C83.7553 56.5993 83.1262 56.3889 82.1825 57.0202C80.7146 58.0724 79.3515 59.2298 77.5689 59.7559C74.7379 60.5976 72.0117 60.1768 69.6 58.4933C68.9709 58.0724 68.3417 57.5463 67.7126 57.1254C66.6641 56.3889 66.035 56.4941 65.5107 57.6515C65.1961 58.388 64.7767 59.1246 64.3573 59.9663ZM65.6155 67.4369C65.6155 66.8056 65.6155 66.1742 65.6155 65.5429C65.6155 62.4916 65.6155 62.4916 67.1883 59.7559C72.3262 63.5438 77.5689 63.649 82.7068 59.7559C83.2311 60.8081 83.6505 61.6498 84.1748 62.5968C84.1748 62.702 84.2796 62.8072 84.2796 62.9125C84.1748 65.1221 84.5942 67.3316 83.965 69.5412C82.9165 74.0657 78.5126 77.2222 74.0039 76.6961C69.1806 76.17 65.6155 72.1717 65.6155 67.4369ZM78.4078 78.4848V80.5892C78.4078 80.7997 78.4078 80.9049 78.1981 81.0101C77.1495 82.0623 75.9961 83.2197 74.8427 84.3771C73.6893 83.2197 72.6408 82.0623 71.4874 81.0101C71.2777 80.7997 71.2777 80.5892 71.2777 80.3788V78.4848C73.7942 79.2214 76.101 79.2214 78.4078 78.4848ZM99.4835 102.58H92.4583V93.2155H90.1515V102.58H59.7437V93.2155H57.4369V102.475H50.4117C50.3068 102.37 50.3068 102.159 50.3068 101.949C50.3068 98.266 50.3068 94.6885 50.3068 91.1111C50.3068 89.2172 51.2505 87.9545 53.1379 87.4284C58.5903 85.9554 63.9379 84.3771 69.3903 82.904C69.8097 82.7988 70.0194 82.7988 70.334 83.1145C71.4874 84.2719 72.7456 85.5345 73.899 86.6919C74.7379 87.5337 75.2621 87.5337 75.9961 86.6919C77.2544 85.5345 78.4078 84.2719 79.666 83.0093C79.8757 82.7988 80.0854 82.6936 80.5049 82.7988C85.9573 84.3771 91.5146 85.8502 97.0718 87.4284C98.5398 87.8493 99.5884 89.1119 99.5884 90.585C99.5884 94.5833 99.4835 98.4764 99.4835 102.58Z" fill="#006E7D"/>
</svg>
