<svg width="20" height="21" viewBox="0 0 20 21" fill="none" xmlns="http://www.w3.org/2000/svg">
<path d="M9.62435 14.2878C7.30712 14.2878 5.42188 12.4025 5.42188 10.0853C5.42188 7.76805 7.30712 5.88281 9.62435 5.88281C11.9414 5.88281 13.8267 7.76805 13.8267 10.0853C13.8267 12.4025 11.9414 14.2878 9.62435 14.2878ZM9.62435 7.14354C8.00212 7.14354 6.6826 8.46321 6.6826 10.0853C6.6826 11.7074 8.00212 13.027 9.62435 13.027C11.2464 13.027 12.5659 11.7074 12.5659 10.0853C12.5659 8.46321 11.2464 7.14354 9.62435 7.14354Z" fill="white"/>
<path d="M11.0232 20.1716H8.22767C7.55529 20.1716 6.96109 19.6942 6.81489 19.0362L6.46108 17.4627C5.88443 17.2182 5.33471 16.8988 4.81869 16.5089L3.28649 16.9929C2.62919 17.1971 1.9148 16.9181 1.58531 16.3297L0.191921 13.9202C-0.141882 13.3234 -0.0292297 12.5888 0.461703 12.1265L1.64917 11.0347C1.61316 10.7145 1.59546 10.3968 1.59546 10.0858C1.59546 9.77479 1.61316 9.45714 1.6484 9.13688L0.467551 8.05021C-0.0292296 7.58283 -0.142652 6.84828 0.187612 6.25916L1.58962 3.83435C1.9148 3.25262 2.63089 2.97622 3.28403 3.17706L4.81869 3.66199C5.33471 3.27201 5.88443 2.95267 6.46108 2.70798L6.81566 1.13299C6.96109 0.47739 7.55529 0 8.22767 0H11.0232C11.6956 0 12.2898 0.47739 12.436 1.13545L12.7898 2.7089C13.3665 2.95344 13.9162 3.27278 14.4322 3.66276L15.9644 3.17875C16.6234 2.97622 17.3361 3.25354 17.6656 3.84189L19.0591 6.25146C19.3928 6.84828 19.2801 7.58283 18.7892 8.04514L17.6017 9.13688C17.6369 9.45714 17.6546 9.77571 17.6546 10.0858C17.6546 10.3959 17.6369 10.7145 17.6017 11.0347L18.7833 12.1206C18.785 12.1223 18.7867 12.124 18.7892 12.1257C19.2801 12.5879 19.3935 13.3226 19.0633 13.9117L17.6613 16.3365C17.3361 16.9181 16.6217 17.1963 15.9661 16.9929L14.4313 16.5079C13.9153 16.8979 13.3655 17.2173 12.789 17.462L12.4343 19.0369C12.2898 19.6942 11.6956 20.1716 11.0232 20.1716ZM4.94735 15.1783C5.09186 15.1783 5.2339 15.2278 5.34825 15.322C5.92567 15.7969 6.55511 16.1634 7.22164 16.4088C7.42248 16.4827 7.5713 16.6534 7.61839 16.8618L8.04622 18.7613C8.06546 18.8487 8.14195 18.9109 8.22859 18.9109H11.024C11.1106 18.9109 11.1871 18.8487 11.2056 18.763L11.6342 16.8618C11.6813 16.6534 11.8301 16.4827 12.0309 16.4088C12.6965 16.1634 13.3269 15.7969 13.9043 15.322C14.0691 15.1858 14.2909 15.1421 14.4953 15.2069L16.3451 15.7911C16.4333 15.8188 16.5275 15.786 16.5678 15.7137L17.9698 13.2889C18.0118 13.2141 17.9966 13.1116 17.9295 13.046L16.5107 11.7416C16.3568 11.6003 16.283 11.391 16.314 11.1843C16.3695 10.8121 16.3973 10.4422 16.3973 10.085C16.3973 9.72769 16.3695 9.35788 16.314 8.9856C16.283 8.77892 16.3568 8.57039 16.5107 8.42834L17.9327 7.12052C17.9966 7.06096 18.0118 6.95662 17.9655 6.87352L16.572 4.46379C16.5267 4.38392 16.4309 4.35206 16.3434 4.37976L14.4961 4.96303C14.2926 5.02782 14.0708 4.98412 13.9052 4.84792C13.3278 4.37299 12.6982 4.00656 12.0317 3.7611C11.8309 3.68723 11.682 3.51655 11.6351 3.30818L11.2073 1.40862C11.1862 1.3229 11.1097 1.26073 11.0232 1.26073H8.22767C8.14118 1.26073 8.06469 1.3229 8.04622 1.40862L7.61747 3.30987C7.57053 3.51825 7.42171 3.68799 7.22087 3.76279C6.55511 4.00826 5.92475 4.37468 5.34825 4.84961C5.18266 4.98581 4.95904 5.02859 4.75744 4.96473L2.90744 4.38053C2.82095 4.35375 2.72507 4.38561 2.68475 4.45794L1.28274 6.88183C1.24073 6.95754 1.25597 7.06173 1.32568 7.12729L2.74277 8.42926C2.89651 8.57039 2.97054 8.77969 2.93945 8.98653C2.88389 9.3588 2.85619 9.72862 2.85619 10.0858C2.85619 10.443 2.88389 10.8128 2.93945 11.1851C2.97054 11.3919 2.89651 11.6003 2.74277 11.7424L1.3206 13.0502C1.25674 13.1099 1.24165 13.2141 1.28782 13.2973L2.68136 15.7069C2.72584 15.7868 2.82172 15.8179 2.9099 15.7911L4.75744 15.2077C4.81961 15.1875 4.88348 15.1783 4.94735 15.1783Z" fill="white"/>
</svg>
