<svg width="68" height="68" viewBox="0 0 68 68" fill="none" xmlns="http://www.w3.org/2000/svg">
<path d="M50.9794 22.8227C49.9327 21.7191 48.1877 21.6705 47.0823 22.7198L29.4831 39.4102L21.0889 30.7916C20.0257 29.7008 18.2825 29.6769 17.1908 30.7402C16.1 31.8025 16.077 33.5475 17.1393 34.6383L27.4312 45.205C27.9705 45.7591 28.6873 46.0384 29.406 46.0384C30.0878 46.0384 30.7697 45.7865 31.3036 45.2821L50.8766 26.72C51.981 25.6724 52.0278 23.9273 50.9794 22.8227Z" fill="white"/>
<path d="M34 0C15.2522 0 0 15.2522 0 34C0 52.7478 15.2522 68 34 68C52.7478 68 68 52.7478 68 34C68 15.2522 52.7478 0 34 0ZM34 62.4866C18.2929 62.4866 5.51345 49.7081 5.51345 34C5.51345 18.2929 18.2928 5.51345 34 5.51345C49.708 5.51345 62.4866 18.2928 62.4866 34C62.4866 49.708 49.708 62.4866 34 62.4866Z" fill="white"/>
</svg>
