<svg width="30" height="30" viewBox="0 0 30 30" fill="none" xmlns="http://www.w3.org/2000/svg">
<path d="M8.6247 4.10163C10.4232 3.06361 12.9636 2.53723 15.6219 2.64421C18.2739 2.74964 20.9113 3.48145 22.9013 4.81251C23.0282 4.89747 23.1705 4.9566 23.3203 4.98652C23.47 5.01645 23.6242 5.01659 23.774 4.98693C23.9238 4.95727 24.0663 4.8984 24.1934 4.81367C24.3204 4.72894 24.4295 4.62002 24.5145 4.49312C24.5995 4.36622 24.6586 4.22383 24.6885 4.07408C24.7184 3.92433 24.7186 3.77015 24.6889 3.62035C24.6593 3.47055 24.6004 3.32805 24.5157 3.201C24.4309 3.07395 24.322 2.96483 24.1951 2.87988C21.771 1.25888 18.6933 0.438691 15.7149 0.320082C12.7427 0.200697 9.73792 0.774364 7.46264 2.0876C7.2019 2.24486 7.01326 2.49813 6.93723 2.79297C6.8612 3.08782 6.90385 3.40073 7.05602 3.66447C7.2082 3.92821 7.45775 4.12174 7.75106 4.20348C8.04438 4.28522 8.35805 4.24865 8.6247 4.10163Z" fill="white"/>
<path d="M16.7323 4.79485C16.4308 4.75989 16.1275 4.84423 15.8873 5.02985C15.6471 5.21547 15.4891 5.48766 15.4468 5.78827C15.4046 6.08888 15.4817 6.39408 15.6614 6.63867C15.8412 6.88325 16.1095 7.04784 16.409 7.09727C20.8201 7.71745 23.4403 10.2214 25.0172 12.7921C26.6126 15.393 27.111 18.0256 27.2172 18.7024C27.2649 19.0071 27.4317 19.2804 27.6809 19.4621C27.9301 19.6438 28.2413 19.7191 28.546 19.6714C28.8507 19.6237 29.124 19.4569 29.3057 19.2078C29.4874 18.9586 29.5627 18.6474 29.515 18.3427C29.3871 17.5264 28.8243 14.5503 26.9994 11.5757C25.1559 8.57097 21.9945 5.53364 16.7323 4.79485Z" fill="white"/>
<path d="M11.3999 12.936C8.56262 15.2206 6.88735 20.1642 9.96578 26.5412C10.0999 26.8191 10.1182 27.1389 10.0166 27.4302C9.91496 27.7216 9.70176 27.9606 9.42389 28.0948C9.14602 28.2289 8.82624 28.2472 8.53489 28.1456C8.24354 28.044 8.0045 27.8308 7.87034 27.5529C4.42369 20.41 6.09275 14.2237 9.94097 11.1251C11.8449 9.5917 14.2528 8.85679 16.6932 9.20719C19.1429 9.55837 21.5159 10.9856 23.3834 13.574C23.5587 13.8243 23.6284 14.1334 23.5776 14.4347C23.5268 14.736 23.3594 15.0051 23.1117 15.184C22.864 15.3628 22.5558 15.437 22.2539 15.3905C21.9519 15.3439 21.6804 15.1804 21.498 14.9353C19.9499 12.7895 18.1087 11.7592 16.3629 11.5088C14.6071 11.2577 12.838 11.7778 11.3999 12.936Z" fill="white"/>
<path d="M15.0036 28.0861C13.0864 24.1456 12.5306 20.8517 12.8934 18.7028C13.0717 17.6407 13.4593 16.9407 13.9221 16.5306C14.364 16.1391 14.9865 15.9104 15.8803 15.9957C17.0827 16.1096 17.6161 16.4957 17.9401 16.9259C18.3285 17.4438 18.5471 18.1865 18.7967 19.3074C18.8278 19.4446 18.8588 19.5857 18.8898 19.7299C19.3456 21.83 19.9604 24.6635 22.8419 26.8566C23.0875 27.04 23.3956 27.1191 23.6992 27.0765C24.0028 27.034 24.2773 26.8732 24.463 26.6293C24.6487 26.3853 24.7306 26.0779 24.6908 25.774C24.6509 25.47 24.4927 25.194 24.2505 25.0061C22.0674 23.3448 21.6147 21.2874 21.1457 19.1594V19.1578L21.0674 18.8012C20.8286 17.7314 20.5309 16.5027 19.7983 15.529C19.0014 14.4685 17.8076 13.8421 16.0997 13.6801C14.6625 13.5436 13.3725 13.9103 12.3802 14.7902C11.4081 15.6507 10.8391 16.8988 10.5995 18.3159C10.1251 21.1292 10.884 24.9348 12.912 29.104C13.047 29.3813 13.2866 29.5937 13.5782 29.6944C13.8697 29.795 14.1894 29.7758 14.4667 29.6408C14.7441 29.5058 14.9565 29.2662 15.0571 28.9746C15.1578 28.6831 15.1385 28.3634 15.0036 28.0861Z" fill="white"/>
<path d="M5.80213 4.92145C6.01037 5.14886 6.11976 5.44967 6.10624 5.75773C6.09272 6.06578 5.9574 6.35585 5.73004 6.56415C4.71566 7.50575 3.84719 8.59317 3.15319 9.79064C3.00104 10.0589 2.74854 10.2558 2.45123 10.338C2.15392 10.4201 1.83616 10.3808 1.56785 10.2286C1.29954 10.0765 1.10266 9.82399 1.02052 9.52669C0.938375 9.22938 0.977703 8.91162 1.12985 8.6433C1.4632 8.05413 2.48804 6.37965 4.15943 4.84858C4.27205 4.74535 4.40391 4.66533 4.54747 4.61308C4.69103 4.56084 4.84348 4.53739 4.99611 4.54409C5.14873 4.55078 5.29854 4.58749 5.43698 4.6521C5.57541 4.71672 5.69976 4.80798 5.80291 4.92067L5.80213 4.92145Z" fill="white"/>
<path d="M25.0796 18.4984C25.0529 18.3469 24.9964 18.2021 24.9134 18.0726C24.8304 17.943 24.7225 17.8312 24.5959 17.7437C24.4694 17.6561 24.3268 17.5946 24.1763 17.5626C24.0258 17.5305 23.8704 17.5287 23.7192 17.5572C23.568 17.5857 23.4239 17.6438 23.2954 17.7284C23.1668 17.8129 23.0563 17.9222 22.9703 18.0497C22.8842 18.1773 22.8244 18.3207 22.7941 18.4715C22.7639 18.6224 22.7639 18.7778 22.7942 18.9287C23.2283 21.2311 24.2927 23.1552 26.2331 24.3537C26.4952 24.5085 26.8076 24.5543 27.1031 24.4813C27.3987 24.4084 27.6538 24.2224 27.8138 23.9634C27.9737 23.7044 28.0257 23.393 27.9586 23.0961C27.8915 22.7991 27.7106 22.5403 27.4549 22.3753C26.2114 21.6071 25.4269 20.3403 25.0796 18.4984Z" fill="white"/>
<path d="M15.5204 18.5197C15.6726 18.5069 15.8258 18.5243 15.9713 18.5708C16.1168 18.6173 16.2517 18.6919 16.3684 18.7906C16.485 18.8892 16.581 19.0098 16.651 19.1456C16.721 19.2813 16.7636 19.4295 16.7763 19.5817C17.1275 23.761 19.2128 26.4014 19.7842 27.051C19.8849 27.1658 19.9621 27.2992 20.0114 27.4438C20.0606 27.5884 20.0808 27.7412 20.071 27.8936C20.0611 28.046 20.0213 28.195 19.9539 28.332C19.8864 28.469 19.7927 28.5914 19.678 28.6922C19.5632 28.793 19.4298 28.8702 19.2852 28.9194C19.1406 28.9686 18.9878 28.9888 18.8354 28.979C18.683 28.9691 18.534 28.9293 18.397 28.8619C18.26 28.7945 18.1376 28.7007 18.0368 28.586C17.2895 27.7356 14.8669 24.6409 14.4591 19.7763C14.4464 19.6241 14.4637 19.4709 14.5102 19.3254C14.5567 19.1799 14.6314 19.045 14.73 18.9284C14.8286 18.8118 14.9493 18.7157 15.085 18.6457C15.2208 18.5757 15.369 18.5332 15.5212 18.5205L15.5204 18.5197Z" fill="white"/>
<path d="M12.3812 7.45904C12.6583 7.33262 12.8748 7.10251 12.984 6.8182C13.0932 6.53389 13.0866 6.21806 12.9654 5.93861C12.8443 5.65916 12.6183 5.4384 12.3362 5.32377C12.054 5.20915 11.7381 5.20981 11.4564 5.32562C6.13445 7.63347 3.69559 11.5646 2.64361 15.1043C1.60248 18.6021 1.9087 21.7147 2.01878 22.5504C2.06192 22.8537 2.22305 23.1278 2.46715 23.313C2.71126 23.4982 3.0186 23.5796 3.32238 23.5395C3.62615 23.4993 3.90181 23.3409 4.08942 23.0986C4.27704 22.8564 4.36145 22.5499 4.3243 22.2457C4.23437 21.5635 3.96382 18.8207 4.87238 15.7679C5.76855 12.7569 7.80429 9.4444 12.3812 7.45904Z" fill="white"/>
</svg>
