<svg width="26" height="16" viewBox="0 0 26 16" fill="none" xmlns="http://www.w3.org/2000/svg">
<path d="M25.1868 5.4862C25.6 5.4862 25.9349 5.15123 25.9349 4.73809V0.748112C25.9349 0.334925 25.6 0 25.1868 0H0.748112C0.334976 0 0 0.334925 0 0.748112V4.73809C0 5.15128 0.334976 5.4862 0.748112 5.4862C1.98564 5.4862 2.9925 6.49301 2.9925 7.73059C2.9925 8.96817 1.9857 9.97498 0.748112 9.97498C0.334976 9.97498 0 10.3099 0 10.7231V14.7131C0 15.1263 0.334976 15.4612 0.748112 15.4612H25.1868C25.6 15.4612 25.9349 15.1262 25.9349 14.7131V10.7231C25.9349 10.3099 25.6 9.97498 25.1868 9.97498C23.9493 9.97498 22.9424 8.96817 22.9424 7.73059C22.9424 6.49301 23.9493 5.4862 25.1868 5.4862ZM24.4387 11.396V13.965H8.72812V11.7206C8.72812 11.3074 8.39315 10.9725 7.98001 10.9725C7.56688 10.9725 7.2319 11.3074 7.2319 11.7206V13.965H1.49622V11.396C3.2015 11.0484 4.48872 9.53697 4.48872 7.73059C4.48872 5.92421 3.2015 4.41269 1.49622 4.06515V1.49622H7.23185V3.74061C7.23185 4.1538 7.56682 4.48872 7.97996 4.48872C8.3931 4.48872 8.72807 4.15375 8.72807 3.74061V1.49622H24.4387V4.06515C22.7334 4.41274 21.4462 5.92421 21.4462 7.73059C21.4462 9.53697 22.7335 11.0485 24.4387 11.396Z" fill="white"/>
<path d="M7.97858 5.98438C7.56539 5.98438 7.23047 6.31935 7.23047 6.73249V8.7275C7.23047 9.14069 7.56544 9.47561 7.97858 9.47561C8.39172 9.47561 8.72669 9.14064 8.72669 8.7275V6.73249C8.72674 6.31935 8.39177 5.98438 7.97858 5.98438Z" fill="white"/>
</svg>
