<svg width="61" height="60" viewBox="0 0 61 60" fill="none" xmlns="http://www.w3.org/2000/svg">
<path d="M14.1473 35.2396C12.9258 44.6828 13.0198 53.7031 13.0198 59.5758H0.804688C0.945631 59.2469 5.22091 46.8909 14.1473 35.2396ZM5.87864 34.0181C8.83844 31.763 12.1271 29.4139 15.5567 27.2058C17.8588 16.7291 22.2281 6.62812 30.5907 0.37964C38.9533 6.62812 43.3226 16.7291 45.6246 27.2058C49.1012 29.367 52.3429 31.763 55.3027 34.0181C51.0274 21.0043 43.4635 6.76907 30.5907 0.0507812C17.7179 6.72209 10.1539 21.0043 5.87864 34.0181ZM48.1616 59.5758H60.3297C60.1888 59.1999 55.9135 46.8909 46.9871 35.2396C48.2556 44.7298 48.1616 53.7031 48.1616 59.5758ZM60.3767 59.5758V38.0585C58.8733 36.79 57.135 35.4275 55.3027 34.0181C59.1552 45.7164 60.3767 56.428 60.3767 59.5758ZM30.5907 20.2057C37.215 24.0581 42.6648 29.5549 47.0341 35.2396C46.7052 32.5617 46.2354 29.8368 45.6246 27.1588C40.7386 24.0581 35.5707 21.3332 30.5907 19.7358C25.6107 21.3332 20.4428 24.0581 15.5567 27.1588C14.946 29.8368 14.5232 32.5617 14.1473 35.2396C18.5165 29.6019 23.9664 24.0581 30.5907 20.2057ZM0.804688 38.0585V59.6228C0.804688 56.475 1.97921 45.7634 5.87864 34.0181C4.04638 35.3805 2.30808 36.79 0.804688 38.0585Z" fill="white"/>
</svg>
